HIERARCHY
ROOT Hips
{
	OFFSET -0.179506 -22.333345 2.821913
	CHANNELS 6 Xposition Yposition Zposition Zrotation Yrotation Xrotation 
	JOINT LeftUpLeg
	{
		OFFSET 6.951974 -9.140623 -0.681533
		CHANNELS 3 Zrotation Yrotation Xrotation
		JOINT LeftLeg
		{
			OFFSET 3.427654 -37.519855 -0.449580
			CHANNELS 3 Zrotation Yrotation Xrotation
			JOINT LeftFoot
			{
				OFFSET -1.359570 -39.796059 -4.369333
				CHANNELS 3 Zrotation Yrotation Xrotation
				JOINT LeftToe
				{
					OFFSET 2.635814 -5.579078 11.928840
					CHANNELS 3 Zrotation Yrotation Xrotation
					End Site
					{
						OFFSET 0.000000 0.000000 0.000000
					}
				}
			}
		}
	}
	JOINT RightUpLeg
	{
		OFFSET -6.767048 -9.052170 -0.431982
		CHANNELS 3 Zrotation Yrotation Xrotation
		JOINT RightLeg
		{
			OFFSET -3.829005 -38.256897 -0.885003
			CHANNELS 3 Zrotation Yrotation Xrotation
			JOINT RightFoot
			{
				OFFSET 1.577377 -39.841461 -4.231180
				CHANNELS 3 Zrotation Yrotation Xrotation
				JOINT RightToe
				{
					OFFSET -2.537174 -4.814398 12.334795
					CHANNELS 3 Zrotation Yrotation Xrotation
					End Site
					{
						OFFSET 0.000000 0.000000 0.000000
					}
				}
			}
		}
	}
	JOINT Spine
	{
		OFFSET -0.253288 10.896323 -2.669631
		CHANNELS 3 Zrotation Yrotation Xrotation
		JOINT Spine1
		{
			OFFSET 0.548704 13.518043 0.109247
			CHANNELS 3 Zrotation Yrotation Xrotation
			JOINT Spine2
			{
				OFFSET 0.145701 5.292222 2.542457
				CHANNELS 3 Zrotation Yrotation Xrotation
				JOINT Neck
				{
					OFFSET -0.277840 21.387037 -4.285703
					CHANNELS 3 Zrotation Yrotation Xrotation
					JOINT Head
					{
						OFFSET 0.515184 6.496960 5.134897
						CHANNELS 3 Zrotation Yrotation Xrotation
						End Site
						{
							OFFSET 0.000000 0.000000 0.000000
						}
					}
				}
				JOINT LeftShoulder
				{
					OFFSET 7.884473 12.174932 -3.408961
					CHANNELS 3 Zrotation Yrotation Xrotation
					JOINT LeftArm
					{
						OFFSET 9.097692 3.046888 -0.886815
						CHANNELS 3 Zrotation Yrotation Xrotation
						JOINT LeftForeArm
						{
							OFFSET 25.961220 -1.277207 -2.745643
							CHANNELS 3 Zrotation Yrotation Xrotation
							JOINT LeftHand
							{
								OFFSET 24.923361 0.898606 -0.117091
								CHANNELS 3 Zrotation Yrotation Xrotation
								End Site
								{
									OFFSET 0.000000 0.000000 0.000000
								}
							}
						}
					}
				}
				JOINT RightShoulder
				{
					OFFSET -8.175920 11.883285 -3.861528
					CHANNELS 3 Zrotation Yrotation Xrotation
					JOINT RightArm
					{
						OFFSET -9.601238 3.255117 -0.914307
						CHANNELS 3 Zrotation Yrotation Xrotation
						JOINT RightForeArm
						{
							OFFSET -25.374195 -1.332924 -2.140099
							CHANNELS 3 Zrotation Yrotation Xrotation
							JOINT RightHand
							{
								OFFSET -25.529810 0.777228 -0.555919
								CHANNELS 3 Zrotation Yrotation Xrotation
								End Site
								{
									OFFSET 0.000000 0.000000 0.000000
								}
							}
						}
					}
				}
			}
		}
	}
}
MOTION
Frames: 9
Frame Time: 0.033333
-15.828400 16.302418 97.533737 -178.779095 1.266351 85.446844 5.125309 7.210713 6.856227 -2.583886 -7.617959 -0.036832 -0.736827 15.643415 -10.358661 nan nan nan -2.214159 -6.890802 7.979836 2.865094 8.395731 -4.989414 2.217287 -11.171807 -8.409100 nan nan nan 0.767648 2.500673 2.190471 1.896245 -2.913118 6.944431 1.020688 1.947345 -5.722667 1.433021 2.204642 12.459300 2.650712 -2.577592 -4.217622 11.337101 -0.074250 -6.719385 -9.484035 -15.993044 -11.051951 9.363991 -1.875330 -7.308212 -22.733618 -15.547896 8.112101 -14.255696 2.069735 -5.702873 2.125294 8.782126 -16.318358 -8.983688 -1.261547 -9.118256 20.539232 8.282613 4.283253 
-15.830829 16.297392 97.520264 -178.764432 1.293625 85.562573 5.125855 7.187160 6.696119 -2.569518 -7.622989 -0.000280 -0.846667 15.660684 -10.344102 nan nan nan -2.169612 -6.882003 7.833119 2.867859 8.371011 -4.957825 2.281567 -11.189130 -8.406827 nan nan nan 0.833915 2.483543 2.040704 1.857021 -2.892443 6.845978 0.997415 1.987689 -5.560260 1.392344 2.145722 12.406457 2.729540 -2.554229 -4.163105 11.300460 -0.039680 -6.839264 -9.478956 -16.130261 -10.996902 9.435712 -1.883558 -7.217140 -22.740654 -15.531283 8.072548 -14.241992 2.021458 -5.710469 2.081549 8.770528 -16.348507 -8.927967 -1.274054 -9.092444 20.490421 8.253393 4.317981 
-15.830325 16.298368 97.516388 -178.764206 1.299686 85.589850 5.125545 7.181575 6.659236 -2.566777 -7.621495 0.007116 -0.872591 15.666814 -10.337211 nan nan nan -2.159528 -6.878474 7.798641 2.869022 8.362596 -4.950503 2.298764 -11.192098 -8.403850 nan nan nan 0.851776 2.475841 2.003322 1.847776 -2.889895 6.825014 0.993437 1.996460 -5.518807 1.378444 2.137695 12.399060 2.743392 -2.544192 -4.159009 11.300558 -0.031576 -6.859813 -9.492772 -16.144530 -10.981174 9.461767 -1.889700 -7.201511 -22.744392 -15.523908 8.057119 -14.248384 2.016538 -5.708739 2.081132 8.772501 -16.344306 -8.925021 -1.279101 -9.063126 20.490222 8.248926 4.325011 
-15.830493 16.298237 97.515266 -178.764530 1.300954 85.596230 5.125420 7.180239 6.650433 -2.566469 -7.621205 0.009547 -0.878660 15.668380 -10.334437 nan nan nan -2.157173 -6.877443 7.789740 2.868924 8.361112 -4.947319 2.302363 -11.193159 -8.403235 nan nan nan 0.856672 2.473648 1.995034 1.845399 -2.889269 6.819709 0.992552 1.998617 -5.508640 1.374191 2.135077 12.397066 2.746392 -2.541432 -4.158868 11.300832 -0.029575 -6.864247 -9.496939 -16.145515 -10.976862 9.470176 -1.891514 -7.198113 -22.739943 -15.520114 8.051628 -14.250770 2.015904 -5.708041 2.081843 8.773396 -16.341552 -8.924596 -1.280407 -9.054222 20.487759 8.248226 4.324193 
-15.831072 16.297907 97.514023 -178.764509 1.302084 85.602578 5.124589 7.178571 6.641565 -2.565308 -7.620675 0.011679 -0.884326 15.670402 -10.331184 nan nan nan -2.155259 -6.876147 7.781239 2.868652 8.360429 -4.945814 2.306236 -11.194210 -8.400943 nan nan nan 0.861718 2.471565 1.987947 1.842892 -2.888506 6.813632 0.991349 2.000999 -5.498881 1.369876 2.131792 12.395144 2.750488 -2.538333 -4.158852 11.300215 -0.027487 -6.868792 -9.500845 -16.148435 -10.972179 9.479382 -1.893694 -7.194009 -22.734943 -15.515920 8.046546 -14.252450 2.013945 -5.707187 2.081849 8.774082 -16.339747 -8.924037 -1.280382 -9.045407 20.484700 8.245640 4.324624 
-15.831161 16.297993 97.513695 -178.764531 1.302327 85.604030 5.124482 7.178312 6.639640 -2.565115 -7.620344 0.012016 -0.885645 15.670707 -10.330376 nan nan nan -2.154840 -6.875833 7.779519 2.868391 8.360225 -4.946207 2.307249 -11.194412 -8.400130 nan nan nan 0.862775 2.471154 1.986374 1.842213 -2.888327 6.812306 0.990985 2.001557 -5.496663 1.369034 2.131170 12.394649 2.751648 -2.537992 -4.158952 11.299773 -0.026926 -6.870100 -9.500904 -16.149184 -10.971940 9.481606 -1.894289 -7.193151 -22.735486 -15.514772 8.046989 -14.252489 2.013455 -5.706883 2.081653 8.773985 -16.339899 -8.924306 -1.280116 -9.043052 20.485316 8.244386 4.326517 
-15.831184 16.298071 97.513390 -178.764533 1.302476 85.605538 5.124400 7.178057 6.637707 -2.565139 -7.620013 0.012363 -0.887067 15.670850 -10.329650 nan nan nan -2.154469 -6.875674 7.777866 2.868124 8.359813 -4.946654 2.308173 -11.194639 -8.399501 nan nan nan 0.863666 2.470750 1.984739 1.841427 -2.888186 6.810906 0.990579 2.002140 -5.494396 1.368395 2.130708 12.394105 2.752982 -2.537722 -4.159049 11.299178 -0.026351 -6.871492 -9.500676 -16.150155 -10.972199 9.483809 -1.895082 -7.192760 -22.736767 -15.513563 8.048309 -14.252362 2.012898 -5.706565 2.081435 8.773762 -16.340558 -8.924772 -1.279878 -9.041052 20.486799 8.242972 4.329595 
-15.831156 16.298159 97.513138 -178.764489 1.302738 85.607080 5.124502 7.177816 6.635819 -2.565241 -7.619929 0.012716 -0.888621 15.670998 -10.328771 nan nan nan -2.153963 -6.875619 7.776211 2.868019 8.359377 -4.946658 2.309002 -11.194905 -8.399325 nan nan nan 0.864524 2.470269 1.983107 1.840697 -2.888040 6.809287 0.990224 2.002831 -5.491978 1.367842 2.130032 12.393458 2.754549 -2.537364 -4.159098 11.298448 -0.025641 -6.872686 -9.500278 -16.151001 -10.972287 9.485838 -1.896564 -7.192130 -22.737097 -15.512369 8.048911 -14.252092 2.012234 -5.706130 2.081000 8.773431 -16.341549 -8.924774 -1.279505 -9.039920 20.487706 8.241810 4.331862 
-15.831154 16.298225 97.513054 -178.764440 1.302870 85.607672 5.124532 7.177715 6.635115 -2.565246 -7.619915 0.012870 -0.889234 15.671150 -10.328602 nan nan nan -2.153736 -6.875547 7.775610 2.867985 8.359247 -4.946724 2.309398 -11.194987 -8.399234 nan nan nan 0.864781 2.470052 1.982528 1.840508 -2.888001 6.808576 0.990107 2.003151 -5.491018 1.367595 2.129756 12.393262 2.755315 -2.537074 -4.158900 11.298068 -0.025161 -6.873076 -9.500019 -16.151473 -10.972097 9.486515 -1.897226 -7.191565 -22.736639 -15.511921 8.048740 -14.251749 2.011843 -5.705846 2.080582 8.773480 -16.342107 -8.924626 -1.279361 -9.039792 20.487458 8.241299 4.332692 
